<?xml version="1.0" encoding="UTF-8" standalone="no"?>
<!DOCTYPE svg PUBLIC "-//W3C//DTD SVG 1.1//EN" "http://www.w3.org/Graphics/SVG/1.1/DTD/svg11.dtd">
<svg width="100%" height="100%" viewBox="0 0 1520 1520" version="1.1" xmlns="http://www.w3.org/2000/svg" xmlns:xlink="http://www.w3.org/1999/xlink" xml:space="preserve" xmlns:serif="http://www.serif.com/" style="fill-rule:evenodd;clip-rule:evenodd;stroke-linejoin:round;stroke-miterlimit:2;">
    <g transform="matrix(1,0,0,1,-6300,-1820)">
        <path d="M7060,1820C7479.45,1820 7820,2160.55 7820,2580C7820,2999.45 7479.45,3340 7060,3340C6640.55,3340 6300,2999.45 6300,2580C6300,2160.55 6640.55,1820 7060,1820ZM7635.83,2255C7522.26,2054.35 7306.84,1918.8 7060,1918.8C6695.07,1918.8 6398.8,2215.07 6398.8,2580C6398.8,2690.79 6426.11,2795.26 6474.34,2886.99L6586.33,2775L7643.67,2775L7513.67,2905L6484.17,2905C6597.74,3105.65 6813.16,3241.2 7060,3241.2C7424.93,3241.2 7721.2,2944.93 7721.2,2580C7721.2,2463.95 7691.24,2354.85 7638.65,2260.02L7513.67,2385L6456.33,2385L6586.33,2255L7635.83,2255ZM7643.67,2515L6586.33,2515L6456.33,2645L7513.67,2645L7643.67,2515Z" style="fill:rgb(235,235,235);"/>
    </g>
</svg>
