<?xml version="1.0" encoding="UTF-8" standalone="no"?>
<!DOCTYPE svg PUBLIC "-//W3C//DTD SVG 1.1//EN" "http://www.w3.org/Graphics/SVG/1.1/DTD/svg11.dtd">
<svg width="100%" height="100%" viewBox="0 0 1520 1520" version="1.1" xmlns="http://www.w3.org/2000/svg" xmlns:xlink="http://www.w3.org/1999/xlink" xml:space="preserve" xmlns:serif="http://www.serif.com/" style="fill-rule:evenodd;clip-rule:evenodd;stroke-linejoin:round;stroke-miterlimit:2;">
    <g transform="matrix(1,0,0,1,-4480,-1840)">
        <path fill="currentColor" d="M5240,1840C5659.45,1840 6000,2180.55 6000,2600C6000,3019.45 5659.45,3360 5240,3360C4820.55,3360 4480,3019.45 4480,2600C4480,2180.55 4820.55,1840 5240,1840ZM5705.95,2415L4605.07,2415C4587.97,2473.74 4578.8,2535.81 4578.8,2600C4578.8,2701.7 4601.81,2798.07 4642.89,2884.16L4762.05,2765L5875.95,2765L5705.95,2935L4669.94,2935C4784.97,3130.15 4997.3,3261.2 5240,3261.2C5604.93,3261.2 5901.2,2964.93 5901.2,2600C5901.2,2489.83 5874.2,2385.92 5826.44,2294.51L5705.95,2415ZM4766.33,2775L4636.33,2905L5693.67,2905L5823.67,2775L4766.33,2775ZM5875.95,2505L4762.05,2505L4592.05,2675L5705.95,2675L5875.95,2505ZM4766.33,2515L4636.33,2645L5693.67,2645L5823.67,2515L4766.33,2515ZM5797.79,2245L4762.05,2245L4610.86,2396.19C4696.83,2130.89 4946.16,1938.8 5240,1938.8C5474.33,1938.8 5680.35,2060.96 5797.79,2245ZM5693.67,2385L5823.67,2255L4766.33,2255L4636.33,2385L5693.67,2385Z" />
    </g>
</svg>
